<?xml version="1.0" encoding="UTF-8" standalone="no"?>
<svg
   xmlns:dc="http://purl.org/dc/elements/1.1/"
   xmlns:cc="http://creativecommons.org/ns#"
   xmlns:rdf="http://www.w3.org/1999/02/22-rdf-syntax-ns#"
   xmlns:svg="http://www.w3.org/2000/svg"
   xmlns="http://www.w3.org/2000/svg"
   version="1.1"
   id="Layer_1"
   x="0px"
   y="0px"
   viewBox="0 0 792 612"
   enable-background="new 0 0 792 612"
   xml:space="preserve"><metadata
   id="metadata192"><rdf:RDF><cc:Work
       rdf:about=""><dc:format>image/svg+xml</dc:format><dc:type
         rdf:resource="http://purl.org/dc/dcmitype/StillImage" /><dc:title></dc:title></cc:Work></rdf:RDF></metadata><defs
   id="defs190" />
<g
   id="g130">
	<path
   fill="#6D6E71"
   d="M111.66,529.91c-4.86,0-9.14-0.82-12.85-2.47c-3.71-1.65-6.64-3.93-8.78-6.87   c-2.14-2.93-3.21-6.37-3.21-10.32v-9.38c0-3.49,1.02-6.68,3.05-9.58c2.03-2.9,4.73-5.22,8.09-6.96c3.35-1.74,7.07-2.62,11.14-2.62   c3.85,0,7.39,0.77,10.6,2.32c3.21,1.55,5.8,3.7,7.76,6.47c1.96,2.77,2.94,5.93,2.94,9.48c0,2.77-0.46,4.74-1.39,5.93   s-2.14,1.91-3.64,2.17s-3.07,0.4-4.71,0.4h-22.6v2.27c0,3.29,1.3,5.91,3.91,7.85s5.94,2.91,10.01,2.91c2.5,0,4.53-0.33,6.1-0.99   s2.89-1.28,3.96-1.88c1.07-0.59,2.07-0.89,3-0.89s1.71,0.26,2.36,0.79c0.64,0.53,1.14,1.15,1.5,1.88s0.54,1.38,0.54,1.98   c0,0.99-0.73,2.07-2.2,3.26c-1.46,1.18-3.52,2.19-6.16,3.01C118.44,529.5,115.3,529.91,111.66,529.91z M98.06,502.05h17.78   c1.57,0,2.62-0.2,3.16-0.59s0.8-1.19,0.8-2.37c0-1.71-0.47-3.31-1.39-4.79c-0.93-1.48-2.21-2.63-3.86-3.46   c-1.64-0.82-3.5-1.24-5.57-1.24c-2,0-3.82,0.4-5.46,1.19s-2.96,1.88-3.96,3.26s-1.5,3-1.5,4.84   C98.06,498.89,98.06,502.05,98.06,502.05z"
   id="path102" />
	<path
   fill="#6D6E71"
   d="M160.17,529.91c-5.14,0-9.37-0.86-12.69-2.57s-5.77-4.05-7.34-7.01c-1.57-2.96-2.36-6.32-2.36-10.08v-8.89   c0-3.69,0.79-7.03,2.36-10.03s4-5.35,7.28-7.06s7.46-2.57,12.53-2.57c3.28,0,6.16,0.36,8.62,1.09c2.46,0.73,4.39,1.63,5.78,2.72   s2.09,2.22,2.09,3.41c0,0.59-0.2,1.3-0.59,2.12s-0.93,1.52-1.61,2.07c-0.68,0.56-1.48,0.84-2.41,0.84c-0.71,0-1.48-0.26-2.3-0.79   s-1.91-1.04-3.27-1.53s-3.18-0.74-5.46-0.74c-4,0-6.96,0.92-8.89,2.77c-1.93,1.84-2.89,4.41-2.89,7.71v8.89   c0,3.29,0.96,5.86,2.89,7.71c1.93,1.84,4.93,2.77,9,2.77c2.36,0,4.21-0.28,5.57-0.84s2.44-1.1,3.27-1.63   c0.82-0.53,1.62-0.79,2.41-0.79c1,0,1.87,0.26,2.62,0.79c0.75,0.53,1.32,1.19,1.71,1.98s0.59,1.52,0.59,2.17   c0,1.12-0.73,2.27-2.2,3.46c-1.46,1.18-3.46,2.16-6,2.91C166.37,529.53,163.46,529.91,160.17,529.91z"
   id="path104" />
	<path
   fill="#6D6E71"
   d="M204.62,529.91c-3.86,0-7.46-0.92-10.82-2.77c-3.36-1.84-6.05-4.26-8.09-7.26c-2.03-3-3.05-6.21-3.05-9.63   v-9.09c0-3.49,0.98-6.72,2.94-9.68s4.64-5.34,8.03-7.11c3.39-1.78,7.08-2.67,11.08-2.67s7.67,0.87,11.03,2.62   c3.35,1.75,6.05,4.08,8.09,7.01c2.03,2.93,3.05,6.21,3.05,9.83v9.09c0,3.36-1.02,6.55-3.05,9.58s-4.75,5.47-8.14,7.31   C212.31,528.99,208.61,529.91,204.62,529.91z M204.72,520.72c2,0,3.82-0.49,5.46-1.48s2.96-2.29,3.96-3.9c1-1.61,1.5-3.31,1.5-5.09   v-9.09c0-1.71-0.5-3.36-1.5-4.94c-1-1.58-2.32-2.87-3.96-3.85c-1.64-0.99-3.46-1.48-5.46-1.48c-2.07,0-3.91,0.49-5.51,1.48   c-1.61,0.99-2.89,2.27-3.86,3.85c-0.96,1.58-1.45,3.23-1.45,4.94v9.09c0,1.78,0.48,3.48,1.45,5.09c0.96,1.61,2.27,2.91,3.91,3.9   C200.9,520.23,202.72,520.72,204.72,520.72z"
   id="path106" />
	<path
   fill="#6D6E71"
   d="M238.56,509.76c-1.07,0-1.95-0.41-2.62-1.23c-0.68-0.82-1.02-1.86-1.02-3.11s0.34-2.3,1.02-3.16   c0.68-0.86,1.55-1.28,2.62-1.28h27.84c1,0,1.89,0.43,2.68,1.28c0.79,0.86,1.18,1.91,1.18,3.16s-0.39,2.29-1.18,3.11   c-0.79,0.82-1.68,1.23-2.68,1.23H238.56z"
   id="path108" />
	<path
   fill="#6D6E71"
   d="M303.14,529.91c-4.86,0-9.14-0.82-12.85-2.47c-3.71-1.65-6.64-3.93-8.78-6.87   c-2.14-2.93-3.21-6.37-3.21-10.32v-9.38c0-3.49,1.02-6.68,3.05-9.58s4.73-5.22,8.09-6.96c3.35-1.74,7.07-2.62,11.14-2.62   c3.85,0,7.39,0.77,10.6,2.32c3.21,1.55,5.8,3.7,7.76,6.47c1.96,2.77,2.94,5.93,2.94,9.48c0,2.77-0.46,4.74-1.39,5.93   c-0.93,1.19-2.14,1.91-3.64,2.17s-3.07,0.4-4.71,0.4h-22.6v2.27c0,3.29,1.3,5.91,3.91,7.85c2.61,1.94,5.94,2.91,10.01,2.91   c2.5,0,4.53-0.33,6.1-0.99s2.89-1.28,3.96-1.88c1.07-0.59,2.07-0.89,3-0.89s1.71,0.26,2.36,0.79c0.64,0.53,1.14,1.15,1.5,1.88   s0.54,1.38,0.54,1.98c0,0.99-0.73,2.07-2.2,3.26c-1.46,1.18-3.52,2.19-6.16,3.01C309.92,529.5,306.78,529.91,303.14,529.91z    M289.54,502.05h17.78c1.57,0,2.62-0.2,3.16-0.59s0.8-1.19,0.8-2.37c0-1.71-0.47-3.31-1.39-4.79c-0.93-1.48-2.21-2.63-3.86-3.46   c-1.64-0.82-3.5-1.24-5.57-1.24c-2,0-3.82,0.4-5.46,1.19c-1.64,0.79-2.96,1.88-3.96,3.26s-1.5,3-1.5,4.84V502.05z"
   id="path110" />
	<path
   fill="#6D6E71"
   d="M336.66,529.12c-1.64,0-2.98-0.36-4.02-1.09c-1.04-0.72-1.55-1.51-1.55-2.37v-40.01   c0-0.99,0.52-1.79,1.55-2.42s2.37-0.94,4.02-0.94c1.36,0,2.53,0.31,3.53,0.94s1.5,1.43,1.5,2.42v3.56c1.07-1.91,2.84-3.64,5.3-5.19   s5.48-2.32,9.05-2.32c3.35,0,6.44,0.87,9.26,2.62s5.09,4.08,6.8,7.01c1.71,2.93,2.57,6.21,2.57,9.83v24.5   c0,1.12-0.59,1.98-1.77,2.57s-2.48,0.89-3.91,0.89c-1.29,0-2.54-0.3-3.75-0.89s-1.82-1.45-1.82-2.57v-24.5   c0-1.71-0.48-3.36-1.45-4.94c-0.96-1.58-2.27-2.87-3.91-3.85c-1.64-0.99-3.46-1.48-5.46-1.48c-1.71,0-3.36,0.41-4.93,1.23   c-1.57,0.83-2.86,1.99-3.86,3.51c-1,1.52-1.5,3.36-1.5,5.53v24.5c0,0.86-0.55,1.65-1.66,2.37   C339.56,528.76,338.22,529.12,336.66,529.12z"
   id="path112" />
	<path
   fill="#6D6E71"
   d="M404.44,529.12c-6.07,0-10.71-1.24-13.92-3.7c-3.21-2.47-4.82-6.37-4.82-11.71v-49.49   c0-0.99,0.59-1.79,1.77-2.42s2.44-0.94,3.8-0.94s2.64,0.31,3.85,0.94s1.82,1.43,1.82,2.42v18.08h13.07c1,0,1.77,0.4,2.3,1.19   c0.54,0.79,0.8,1.68,0.8,2.67c0,0.99-0.27,1.88-0.8,2.67c-0.54,0.79-1.3,1.19-2.3,1.19h-13.07v23.71c0,2.37,0.55,4.05,1.66,5.04   c1.11,0.99,3.05,1.48,5.84,1.48h3.64c1.64,0,2.87,0.44,3.69,1.33s1.23,1.93,1.23,3.11c0,1.12-0.41,2.14-1.23,3.06   s-2.05,1.38-3.69,1.38L404.44,529.12L404.44,529.12z"
   id="path114" />
	<path
   fill="#6D6E71"
   d="M442.89,529.91c-4.86,0-9.14-0.82-12.85-2.47c-3.71-1.65-6.64-3.93-8.78-6.87   c-2.14-2.93-3.21-6.37-3.21-10.32v-9.38c0-3.49,1.02-6.68,3.05-9.58s4.73-5.22,8.09-6.96c3.35-1.74,7.07-2.62,11.14-2.62   c3.86,0,7.39,0.77,10.6,2.32c3.21,1.55,5.8,3.7,7.76,6.47c1.96,2.77,2.94,5.93,2.94,9.48c0,2.77-0.47,4.74-1.39,5.93   c-0.93,1.19-2.14,1.91-3.64,2.17s-3.07,0.4-4.71,0.4h-22.6v2.27c0,3.29,1.3,5.91,3.91,7.85c2.61,1.94,5.94,2.91,10.01,2.91   c2.5,0,4.53-0.33,6.1-0.99s2.89-1.28,3.96-1.88c1.07-0.59,2.07-0.89,3-0.89s1.71,0.26,2.36,0.79c0.64,0.53,1.14,1.15,1.5,1.88   s0.54,1.38,0.54,1.98c0,0.99-0.73,2.07-2.2,3.26c-1.46,1.18-3.52,2.19-6.16,3.01C449.67,529.5,446.53,529.91,442.89,529.91z    M429.29,502.05h17.78c1.57,0,2.62-0.2,3.16-0.59c0.54-0.4,0.8-1.19,0.8-2.37c0-1.71-0.47-3.31-1.39-4.79   c-0.93-1.48-2.21-2.63-3.86-3.46c-1.64-0.82-3.5-1.24-5.57-1.24c-2,0-3.82,0.4-5.46,1.19c-1.64,0.79-2.96,1.88-3.96,3.26   s-1.5,3-1.5,4.84V502.05z"
   id="path116" />
	<path
   fill="#6D6E71"
   d="M476.3,529.12c-1.57,0-2.88-0.36-3.91-1.09c-1.04-0.72-1.55-1.51-1.55-2.37v-40.01   c0-0.99,0.52-1.79,1.55-2.42s2.34-0.94,3.91-0.94c1.43,0,2.64,0.31,3.64,0.94s1.5,1.43,1.5,2.42V490c0.78-1.38,1.84-2.7,3.16-3.95   s2.87-2.29,4.66-3.11c1.78-0.82,3.71-1.24,5.78-1.24h3.43c1.14,0,2.14,0.44,3,1.33s1.28,1.96,1.28,3.21s-0.43,2.34-1.28,3.26   c-0.86,0.92-1.86,1.38-3,1.38h-3.43c-2.14,0-4.21,0.59-6.21,1.78s-3.62,2.85-4.87,4.99c-1.25,2.14-1.87,4.73-1.87,7.76v20.25   c0,0.86-0.55,1.65-1.66,2.37C479.31,528.76,477.94,529.12,476.3,529.12z"
   id="path118" />
	<path
   fill="#6D6E71"
   d="M514.74,551.35c-1.57,0-2.87-0.36-3.91-1.09c-1.04-0.73-1.55-1.52-1.55-2.37v-62.24   c0-0.99,0.52-1.79,1.55-2.42s2.3-0.94,3.8-0.94s2.75,0.31,3.75,0.94s1.5,1.43,1.5,2.42v3.56c1.21-1.91,3.05-3.64,5.52-5.19   c2.46-1.55,5.41-2.32,8.84-2.32c3.57,0,6.82,0.87,9.75,2.62s5.25,4.08,6.96,7.01c1.71,2.93,2.57,6.21,2.57,9.83v9.09   c0,3.43-0.88,6.64-2.62,9.63c-1.75,3-4.05,5.42-6.91,7.26s-5.96,2.77-9.32,2.77c-3.21,0-6.1-0.77-8.67-2.32s-4.39-3.34-5.46-5.38   v25.69c0,0.85-0.55,1.65-1.66,2.37C517.76,550.99,516.38,551.35,514.74,551.35z M531.34,520.72c1.93,0,3.71-0.49,5.36-1.48   c1.64-0.99,2.98-2.31,4.02-3.95c1.03-1.65,1.55-3.32,1.55-5.04v-9.09c0-1.71-0.5-3.36-1.5-4.94c-1-1.58-2.34-2.87-4.02-3.85   c-1.68-0.99-3.55-1.48-5.62-1.48c-1.71,0-3.39,0.41-5.03,1.23c-1.64,0.83-2.98,1.99-4.02,3.51c-1.04,1.52-1.55,3.36-1.55,5.53   v11.36c0,0.79,0.46,1.83,1.39,3.11c0.93,1.28,2.21,2.45,3.86,3.51C527.41,520.2,529.27,520.72,531.34,520.72z"
   id="path120" />
	<path
   fill="#6D6E71"
   d="M568.82,529.12c-1.57,0-2.88-0.36-3.91-1.09c-1.04-0.72-1.55-1.51-1.55-2.37v-40.01   c0-0.99,0.52-1.79,1.55-2.42c1.03-0.63,2.34-0.94,3.91-0.94c1.43,0,2.64,0.31,3.64,0.94s1.5,1.43,1.5,2.42V490   c0.78-1.38,1.84-2.7,3.16-3.95c1.32-1.25,2.87-2.29,4.66-3.11c1.78-0.82,3.71-1.24,5.78-1.24h3.43c1.14,0,2.14,0.44,3,1.33   c0.86,0.89,1.28,1.96,1.28,3.21s-0.43,2.34-1.28,3.26c-0.86,0.92-1.86,1.38-3,1.38h-3.43c-2.14,0-4.21,0.59-6.21,1.78   s-3.62,2.85-4.87,4.99c-1.25,2.14-1.87,4.73-1.87,7.76v20.25c0,0.86-0.55,1.65-1.66,2.37   C571.84,528.76,570.46,529.12,568.82,529.12z"
   id="path122" />
	<path
   fill="#6D6E71"
   d="M607.27,470.54c-1.86,0-3.43-0.56-4.71-1.68s-1.93-2.37-1.93-3.75c0-1.51,0.64-2.8,1.93-3.85   c1.29-1.05,2.85-1.58,4.71-1.58c1.78,0,3.3,0.53,4.55,1.58s1.87,2.34,1.87,3.85c0,1.38-0.63,2.64-1.87,3.75   C610.57,469.98,609.05,470.54,607.27,470.54z M607.27,529.12c-1.64,0-2.98-0.36-4.02-1.09c-1.04-0.72-1.55-1.51-1.55-2.37v-40.01   c0-0.99,0.52-1.79,1.55-2.42c1.03-0.63,2.37-0.94,4.02-0.94c1.57,0,2.91,0.31,4.02,0.94c1.11,0.63,1.66,1.43,1.66,2.42v40.01   c0,0.86-0.55,1.65-1.66,2.37C610.17,528.76,608.84,529.12,607.27,529.12z"
   id="path124" />
	<path
   fill="#6D6E71"
   d="M640.14,529.91c-3.5,0-6.64-0.4-9.42-1.19s-4.98-1.79-6.59-3.01c-1.61-1.22-2.41-2.45-2.41-3.71   c0-0.59,0.16-1.25,0.48-1.98c0.32-0.72,0.79-1.35,1.39-1.88c0.61-0.53,1.27-0.79,1.98-0.79c0.93,0,1.91,0.38,2.94,1.14   s2.41,1.52,4.12,2.27c1.71,0.76,4.1,1.14,7.18,1.14c3.57,0,5.98-0.56,7.23-1.68s1.87-2.34,1.87-3.66c0-1.71-0.63-3.05-1.87-4   c-1.25-0.95-2.86-1.73-4.82-2.32s-4.05-1.17-6.26-1.73s-4.3-1.3-6.27-2.22c-1.96-0.92-3.57-2.21-4.82-3.85   c-1.25-1.65-1.87-3.82-1.87-6.52c0-2.24,0.61-4.46,1.82-6.67c1.21-2.21,3.16-4.02,5.84-5.43c2.68-1.42,6.26-2.12,10.76-2.12   c2.71,0,5.28,0.26,7.71,0.79s4.43,1.24,6,2.12c1.57,0.89,2.36,1.86,2.36,2.91c0,0.46-0.18,1.1-0.54,1.93   c-0.36,0.82-0.84,1.55-1.45,2.17c-0.61,0.63-1.38,0.94-2.3,0.94c-0.71,0-1.61-0.25-2.68-0.74s-2.32-0.97-3.75-1.43   s-3.18-0.69-5.25-0.69s-3.73,0.31-4.98,0.94s-2.16,1.37-2.73,2.22c-0.57,0.86-0.86,1.71-0.86,2.57c0,1.45,0.61,2.57,1.82,3.36   c1.21,0.79,2.82,1.45,4.82,1.98s4.1,1.07,6.32,1.63c2.21,0.56,4.3,1.37,6.27,2.42c1.96,1.05,3.57,2.47,4.82,4.25   s1.87,4.15,1.87,7.11c0,4.15-1.63,7.48-4.87,9.98C650.76,528.66,646.14,529.91,640.14,529.91z"
   id="path126" />
	<path
   fill="#6D6E71"
   d="M691.01,529.91c-4.86,0-9.14-0.82-12.85-2.47c-3.71-1.65-6.64-3.93-8.78-6.87   c-2.14-2.93-3.21-6.37-3.21-10.32v-9.38c0-3.49,1.02-6.68,3.05-9.58c2.03-2.9,4.73-5.22,8.09-6.96c3.35-1.74,7.07-2.62,11.14-2.62   c3.86,0,7.39,0.77,10.6,2.32c3.21,1.55,5.8,3.7,7.76,6.47s2.94,5.93,2.94,9.48c0,2.77-0.47,4.74-1.39,5.93   c-0.93,1.19-2.14,1.91-3.64,2.17s-3.07,0.4-4.71,0.4h-22.6v2.27c0,3.29,1.3,5.91,3.91,7.85s5.94,2.91,10.01,2.91   c2.5,0,4.53-0.33,6.1-0.99c1.57-0.66,2.89-1.28,3.96-1.88c1.07-0.59,2.07-0.89,3-0.89s1.71,0.26,2.36,0.79   c0.64,0.53,1.14,1.15,1.5,1.88s0.54,1.38,0.54,1.98c0,0.99-0.73,2.07-2.2,3.26c-1.46,1.18-3.52,2.19-6.16,3.01   C697.79,529.5,694.65,529.91,691.01,529.91z M677.41,502.05h17.78c1.57,0,2.62-0.2,3.16-0.59c0.54-0.4,0.8-1.19,0.8-2.37   c0-1.71-0.47-3.31-1.39-4.79c-0.93-1.48-2.21-2.63-3.86-3.46c-1.64-0.82-3.5-1.24-5.57-1.24c-2,0-3.82,0.4-5.46,1.19   s-2.96,1.88-3.96,3.26s-1.5,3-1.5,4.84L677.41,502.05L677.41,502.05z"
   id="path128" />
</g>
<g
   id="g185">
	<g
   id="g149">
		
			<linearGradient
   id="SVGID_1_"
   gradientUnits="userSpaceOnUse"
   x1="319.25"
   y1="362.515"
   x2="454.82"
   y2="362.515"
   gradientTransform="matrix(1 0 0 -1 0 612)">
			<stop
   offset="0"
   style="stop-color:#D1E4A5"
   id="stop132" />
			<stop
   offset="0.0967"
   style="stop-color:#76B83F"
   id="stop134" />
			<stop
   offset="0.3553"
   style="stop-color:#D1E4A5"
   id="stop136" />
			<stop
   offset="0.5082"
   style="stop-color:#76B83F"
   id="stop138" />
			<stop
   offset="0.6448"
   style="stop-color:#ACD479"
   id="stop140" />
			<stop
   offset="0.7861"
   style="stop-color:#76B83F"
   id="stop142" />
			<stop
   offset="0.9881"
   style="stop-color:#D1E4A5"
   id="stop144" />
		</linearGradient>
		<path
   fill="url(#SVGID_1_)"
   d="M450.62,190.62c2.8,0,4.2,1.24,4.2,3.7v15.99c0,2.47-1.4,3.7-4.2,3.7h-79.74    c-4.74,0-8.67,0.37-11.77,1.09c-3.1,0.73-5.6,1.97-7.48,3.7c-1.89,1.74-3.19,4.1-3.92,7.07c-0.73,2.98-1.09,6.65-1.09,11.02v1.68    h73.41c2.67,0,4.01,1.24,4.01,3.7v13.3c0,2.47-1.34,3.7-4.01,3.7h-73.41v2.86c0,4.38,0.37,8.05,1.09,11.02    c0.73,2.97,2.04,5.33,3.92,7.07c1.88,1.74,4.38,2.97,7.48,3.7s7.02,1.09,11.77,1.09h79.74c2.8,0,4.2,1.24,4.2,3.7v15.99    c0,2.47-1.4,3.7-4.2,3.7h-80.28c-9.25,0-17.09-0.78-23.54-2.36c-6.45-1.57-11.71-4.12-15.78-7.66c-4.08-3.54-7.06-8.13-8.94-13.8    c-1.89-5.66-2.83-12.54-2.83-20.62v-28.95c0-8.08,0.94-14.92,2.83-20.54c1.88-5.61,4.86-10.18,8.94-13.72    c4.07-3.53,9.33-6.11,15.78-7.74c6.45-1.62,14.29-2.44,23.54-2.44h80.28V190.62z"
   id="path147" />
	</g>
	
		<linearGradient
   id="SVGID_00000067954443409900016270000009914302179860541316_"
   gradientUnits="userSpaceOnUse"
   x1="130.1824"
   y1="513.4106"
   x2="476.0458"
   y2="513.4106"
   gradientTransform="matrix(0.7071 0.7071 0.7071 -0.7071 -179.0846 392.0407)">
		<stop
   offset="0"
   style="stop-color:#2BC4F3"
   id="stop151" />
		<stop
   offset="0.2039"
   style="stop-color:#0095DA"
   id="stop153" />
		<stop
   offset="0.3501"
   style="stop-color:#2BC4F3"
   id="stop155" />
		<stop
   offset="0.5"
   style="stop-color:#00AEEE"
   id="stop157" />
		<stop
   offset="0.736"
   style="stop-color:#2BC4F3"
   id="stop159" />
		<stop
   offset="0.8809"
   style="stop-color:#0095DA"
   id="stop161" />
	</linearGradient>
	<path
   fill="url(#SVGID_00000067954443409900016270000009914302179860541316_)"
   d="M398.28,416.19   c-44.28,0-88.57-16.86-122.28-50.57c-67.42-67.42-67.42-177.13,0-244.56c67.43-67.42,177.13-67.43,244.56,0   c67.42,67.42,67.42,177.13,0,244.56C486.85,399.33,442.57,416.19,398.28,416.19z M398.28,104.43c-35.59,0-71.18,13.54-98.27,40.64   c-54.19,54.19-54.19,142.36,0,196.55s142.36,54.19,196.55,0s54.19-142.36,0-196.55C469.47,117.98,433.87,104.43,398.28,104.43z"
   id="path164" />
	<g
   id="g183">
		
			<linearGradient
   id="SVGID_00000088828901469659161820000012687915719283069608_"
   gradientUnits="userSpaceOnUse"
   x1="461.3134"
   y1="442.3275"
   x2="490.2411"
   y2="442.3275"
   gradientTransform="matrix(1 3.786964e-04 3.786964e-04 -1 -1.2185 618.0624)">
			<stop
   offset="0"
   style="stop-color:#D1E4A5"
   id="stop166" />
			<stop
   offset="0.0967"
   style="stop-color:#76B83F"
   id="stop168" />
			<stop
   offset="0.3553"
   style="stop-color:#D1E4A5"
   id="stop170" />
			<stop
   offset="0.5082"
   style="stop-color:#76B83F"
   id="stop172" />
			<stop
   offset="0.6448"
   style="stop-color:#ACD479"
   id="stop174" />
			<stop
   offset="0.7861"
   style="stop-color:#76B83F"
   id="stop176" />
			<stop
   offset="0.9881"
   style="stop-color:#D1E4A5"
   id="stop178" />
		</linearGradient>
		<path
   fill="url(#SVGID_00000088828901469659161820000012687915719283069608_)"
   d="M462.66,188.84c-1.6-1.65-2.4-3.78-2.4-6.37    c0-3,0.99-6.23,2.98-9.69c1.98-3.46,4.49-6.37,7.52-8.73s5.99-3.55,8.89-3.55c3.15,0,4.73,1.55,4.73,4.66    c0,2.49-0.94,4.82-2.82,6.98c-1.88,2.16-4.3,3.93-7.25,5.3c-2.95,1.37-5.9,2.21-8.85,2.51c-0.2,0.87-0.31,1.78-0.31,2.75    c0,1.83,0.46,3.36,1.37,4.58s2.47,1.83,4.65,1.83c3.1,0,6.23-1.29,9.39-3.89c3.16-2.59,5.73-5.8,7.71-9.61l0.92,0.69    c-2.04,4.53-4.86,8.16-8.48,10.91c-3.61,2.75-7.33,4.12-11.14,4.12C466.57,191.32,464.27,190.5,462.66,188.84z M472.55,175.3    c2.34-1.37,4.34-2.99,5.99-4.84c1.65-1.86,2.48-3.8,2.48-5.84c0-0.61-0.11-1.05-0.34-1.34c-0.23-0.28-0.65-0.42-1.26-0.42    c-1.58,0-3.3,0.79-5.15,2.36c-1.86,1.58-3.56,3.59-5.12,6.03c-1.55,2.44-2.66,4.86-3.32,7.25    C467.97,177.74,470.21,176.67,472.55,175.3z"
   id="path181" />
	</g>
</g>
</svg>
