<?xml version="1.0" encoding="UTF-8" standalone="no"?>
<svg
   xmlns:dc="http://purl.org/dc/elements/1.1/"
   xmlns:cc="http://creativecommons.org/ns#"
   xmlns:rdf="http://www.w3.org/1999/02/22-rdf-syntax-ns#"
   xmlns:svg="http://www.w3.org/2000/svg"
   xmlns="http://www.w3.org/2000/svg"
   width="210mm"
   height="278.72601mm"
   viewBox="0 0 210 278.72601"
   version="1.1"
   id="svg8">
  <defs
     id="defs2" />
  <metadata
     id="metadata5">
    <rdf:RDF>
      <cc:Work
         rdf:about="">
        <dc:format>image/svg+xml</dc:format>
        <dc:type
           rdf:resource="http://purl.org/dc/dcmitype/StillImage" />
        <dc:title></dc:title>
      </cc:Work>
    </rdf:RDF>
  </metadata>
  <g
     id="layer1">
    <g
       id="g1010"
       transform="matrix(0.86311405,0,0,0.86311405,-153.43319,-156.6848)">
      <g
         id="Layer_2">
</g>
      <g
         id="Layer_1">
	<g
   id="g927">
		<path
   class="st0"
   d="m 189.21,411.09 h 20.93 c 2.21,0 4.03,1.82 4.03,4.03 0,2.21 -1.82,4.03 -4.03,4.03 h -20.93 v 14.53 h 26.93 c 2.29,0 4.11,1.82 4.11,4.11 0,2.29 -1.82,4.11 -4.11,4.11 h -31.52 c -2.53,0 -4.58,-2.05 -4.58,-4.58 v -44 c 0,-2.53 2.05,-4.58 4.58,-4.58 h 30.65 c 2.29,0 4.11,1.82 4.11,4.11 0,2.29 -1.82,4.11 -4.11,4.11 h -26.06 z"
   id="path907" />

		<path
   class="st0"
   d="m 288.15,411.09 h 20.93 c 2.21,0 4.03,1.82 4.03,4.03 0,2.21 -1.82,4.03 -4.03,4.03 h -20.93 v 14.53 h 26.93 c 2.29,0 4.11,1.82 4.11,4.11 0,2.29 -1.82,4.11 -4.11,4.11 h -31.52 c -2.53,0 -4.58,-2.05 -4.58,-4.58 v -44 c 0,-2.53 2.05,-4.58 4.58,-4.58 h 30.65 c 2.29,0 4.11,1.82 4.11,4.11 0,2.29 -1.82,4.11 -4.11,4.11 h -26.06 z"
   id="path909" />

		<path
   class="st0"
   d="m 343.88,472.6 h 20.93 c 2.21,0 4.03,1.82 4.03,4.03 0,2.21 -1.82,4.03 -4.03,4.03 h -20.93 v 14.53 h 26.93 c 2.29,0 4.11,1.82 4.11,4.11 0,2.29 -1.82,4.11 -4.11,4.11 H 339.3 c -2.53,0 -4.58,-2.05 -4.58,-4.58 v -44 c 0,-2.53 2.05,-4.58 4.58,-4.58 h 30.65 c 2.29,0 4.11,1.82 4.11,4.11 0,2.29 -1.82,4.11 -4.11,4.11 h -26.06 v 14.13 z"
   id="path911" />

		<path
   class="st0"
   d="M 244.23,439.61 226.3,394.42 c -0.24,-0.55 -0.32,-1.03 -0.32,-1.74 0,-2.53 2.05,-4.58 4.58,-4.58 2.29,0 3.71,1.42 4.19,2.69 l 13.75,36.42 13.75,-36.42 c 0.47,-1.19 1.9,-2.69 4.19,-2.69 2.53,0 4.58,2.05 4.58,4.58 0,0.71 -0.08,1.19 -0.32,1.74 l -17.93,45.19 c -0.63,1.58 -1.9,2.92 -4.27,2.92 -2.38,0 -3.64,-1.34 -4.27,-2.92 z"
   id="path913" />

		<path
   class="st0"
   d="m 369.94,392.6 v 45.42 c 0,2.45 -2.05,4.5 -4.5,4.5 -1.5,0 -2.92,-0.79 -3.71,-1.97 l -23.3,-33.65 v 31.12 c 0,2.45 -2.05,4.5 -4.5,4.5 -2.45,0 -4.5,-2.05 -4.5,-4.5 V 392.6 c 0,-2.45 2.05,-4.5 4.5,-4.5 1.58,0 2.84,0.71 3.63,1.9 l 23.38,33.89 V 392.6 c 0,-2.45 2.05,-4.5 4.5,-4.5 2.44,0 4.5,2.05 4.5,4.5 z"
   id="path915" />

		<path
   class="st0"
   d="m 404.85,396.79 v 41.16 c 0,2.53 -2.05,4.58 -4.58,4.58 -2.53,0 -4.58,-2.05 -4.58,-4.58 V 396.79 H 383.6 c -2.21,0 -4.03,-1.82 -4.03,-4.03 0,-2.21 1.82,-4.03 4.03,-4.03 h 33.34 c 2.21,0 4.03,1.82 4.03,4.03 0,2.21 -1.82,4.03 -4.03,4.03 z"
   id="path917" />

		<path
   class="st0"
   d="m 213.57,482.95 h -12.74 c -2.21,0 -4.03,-1.82 -4.03,-4.03 0,-2.21 1.82,-4.03 4.03,-4.03 h 17.33 c 2.21,0 4.34,1.9 4.34,4.19 v 12.64 c 0,1.82 -0.4,3 -1.34,4.19 -3.79,5.06 -12.17,8.61 -20.62,8.61 -15.72,0 -22.73,-8.29 -22.73,-27.65 0,-18.72 7.01,-27.73 22.73,-27.73 9.56,0 15.8,3.79 19.04,8.53 0.63,0.95 0.87,1.74 0.87,2.61 0,2.29 -1.9,4.19 -4.27,4.19 -1.11,0 -2.21,-0.47 -3.24,-1.58 -3.24,-3.55 -6.64,-5.53 -12.4,-5.53 -10.51,0 -13.25,6.48 -13.25,19.51 0,13.82 2.74,19.43 13.25,19.43 5.85,0 9.95,-1.34 13.03,-4.5 z"
   id="path919" />

		<path
   class="st0"
   d="m 238.94,489.59 -4.82,11.45 c -0.71,1.66 -2.21,3 -4.27,3 -2.45,0 -4.5,-2.05 -4.5,-4.5 0,-0.47 0.08,-1.11 0.32,-1.66 l 18.64,-45.42 c 0.47,-1.11 1.74,-2.84 4.19,-2.84 2.45,0 3.71,1.74 4.19,2.84 l 18.64,45.42 c 0.24,0.55 0.32,1.18 0.32,1.66 0,2.45 -2.05,4.5 -4.5,4.5 -2.05,0 -3.55,-1.34 -4.27,-3 l -4.82,-11.45 z m 9.56,-24.97 -6.48,16.59 h 12.96 z"
   id="path921" />

		<path
   class="st0"
   d="m 298.02,492.83 -12.4,-22.04 v 28.75 c 0,2.45 -2.05,4.5 -4.5,4.5 -2.45,0 -4.5,-2.05 -4.5,-4.5 v -45.42 c 0,-2.45 2.05,-4.5 4.5,-4.5 1.97,0 3.24,1.11 4.03,2.53 l 16.75,30.02 16.75,-30.02 c 0.79,-1.42 2.05,-2.53 4.03,-2.53 2.45,0 4.5,2.05 4.5,4.5 v 45.42 c 0,2.45 -2.05,4.5 -4.5,4.5 -2.45,0 -4.5,-2.05 -4.5,-4.5 v -28.75 l -12.4,22.04 c -0.79,1.42 -2.29,2.21 -3.87,2.21 -1.58,0 -3.1,-0.79 -3.89,-2.21 z"
   id="path923" />

		<path
   class="st0"
   d="m 401.22,457.36 c -6.56,0 -9,3.08 -9,6.24 0,10.35 28.83,5.53 28.83,25.28 0,9.64 -6.79,15.64 -19.83,15.64 -9.4,0 -16.9,-4.66 -19.99,-9.64 -0.39,-0.63 -0.63,-1.42 -0.63,-2.21 0,-2.37 1.9,-4.27 4.19,-4.27 1.74,0 2.69,0.95 3.48,1.74 3.32,3.32 7.5,6 12.96,6 7.19,0 10.67,-2.37 10.67,-7.27 0,-11.53 -28.83,-6.24 -28.83,-25.28 0,-7.82 5.61,-14.46 18.17,-14.46 7.9,0 14.77,2.92 17.93,7.43 0.47,0.71 0.79,1.58 0.79,2.53 0,2.29 -1.9,4.19 -4.27,4.19 -1.11,0 -2.21,-0.63 -3.4,-1.74 -2.46,-2.37 -6.57,-4.18 -11.07,-4.18 z"
   id="path925" />

	</g>

	<linearGradient
   id="SVGID_1_"
   gradientUnits="userSpaceOnUse"
   x1="296.74921"
   y1="224.0255"
   x2="381.82471"
   y2="224.0255">
		<stop
   offset="0"
   style="stop-color:#2BC4F3"
   id="stop929" />

		<stop
   offset="0.5"
   style="stop-color:#00AEEE"
   id="stop931" />

		<stop
   offset="1"
   style="stop-color:#0095DA"
   id="stop933" />

	</linearGradient>

	<path
   class="st1"
   d="m 311.33,238.58 c 0.89,0 1.65,0.21 2.3,0.63 1.45,0.94 2.16,2.83 2.2,5.78 0.06,5.78 0.13,12.33 -0.03,18.82 -0.03,1.08 0.13,1.78 0.48,2.13 0.35,0.35 1.08,0.5 2.2,0.49 h 14.47 c 2.57,0 3.03,0 3.03,-2.65 v -26.36 c 0,-2.93 1.95,-4.68 5.22,-4.68 h 15.68 c 2.76,0 4.47,1.71 4.47,4.47 v 3.99 c 0,1.28 0,1.71 1.71,1.71 h 16.53 c 1.41,0 2.25,0 2.25,-4.14 0,-4.32 -0.08,-17.58 -0.08,-17.58 0,0 0,-0.01 0,-0.01 0,-1.95 -0.01,-3.91 -0.02,-5.86 -0.02,-4 -0.05,-8.13 0.08,-12.2 0.03,-1.07 -0.11,-1.76 -0.44,-2.09 -0.33,-0.34 -1.06,-0.48 -2.22,-0.46 -5.71,0.14 -11.52,0.09 -17.13,0.04 l -1.33,-0.01 c -3.18,-0.03 -5.11,-0.71 -6.05,-2.17 -0.96,-1.47 -0.8,-3.57 0.5,-6.6 1.43,-3.33 0.6,-6.9 -2.08,-8.89 -2.44,-1.81 -6.21,-1.8 -8.58,0.02 -2.7,2.08 -3.4,5.41 -1.87,8.91 1.25,2.85 1.38,4.96 0.41,6.45 -0.98,1.51 -3,2.25 -6.17,2.27 l -3.54,0.03 c -4.77,0.04 -9.7,0.09 -14.56,-0.09 -1.23,-0.04 -2.02,0.12 -2.41,0.51 -0.4,0.4 -0.57,1.21 -0.53,2.55 0.18,6.42 0.11,12.85 0.01,18.83 -0.04,2.61 -0.79,4.4 -2.2,5.3 -1.44,0.92 -3.42,0.83 -5.9,-0.27 -3.86,-1.71 -7.19,-1.18 -9.37,1.51 -2.08,2.56 -2.13,6.2 -0.12,8.84 2.17,2.85 5.27,3.43 9.23,1.73 1.47,-0.63 2.76,-0.95 3.86,-0.95 z"
   id="path936"
   style="fill:url(#SVGID_1_)" />

	
		<linearGradient
   id="SVGID_00000081639226768044932930000000582079122351081625_"
   gradientUnits="userSpaceOnUse"
   x1="297.37601"
   y1="310.33609"
   x2="381.19711"
   y2="310.33609">
		<stop
   offset="0"
   style="stop-color:#D471AD"
   id="stop938" />

		<stop
   offset="0.5"
   style="stop-color:#C7158C"
   id="stop940" />

		<stop
   offset="1"
   style="stop-color:#9D248E"
   id="stop942" />

	</linearGradient>

	<path
   style="fill:url(#SVGID_00000081639226768044932930000000582079122351081625_)"
   d="m 327.78,333.34 c 3.06,0 6.23,0.03 9.55,0.08 2.98,0.05 4.8,0.74 5.71,2.16 0.92,1.42 0.79,3.36 -0.39,6.09 -1.62,3.74 -0.96,7.15 1.75,9.12 2.59,1.88 6,1.87 8.48,-0.03 2.68,-2.04 3.39,-5.62 1.82,-9.13 -1.18,-2.63 -1.32,-4.6 -0.42,-6.02 0.88,-1.39 2.64,-2.09 5.38,-2.14 5.47,-0.1 11.95,-0.19 18.57,0 1.24,0.03 2.05,-0.15 2.46,-0.57 0.4,-0.42 0.55,-1.22 0.47,-2.46 -0.14,-2.09 -0.1,-4.2 -0.07,-6.24 0.01,-0.9 0.03,-1.81 0.03,-2.71 0,-0.97 0,-1.94 0.01,-2.92 0.01,-2.11 0.01,-4.22 -0.02,-6.33 0,-0.01 0,-0.01 0,-0.02 0,0 0.08,-37.42 0.08,-40.48 0,-2.79 -0.77,-3.26 -2.49,-3.26 h -26.36 c -1.84,0 -3.32,0 -3.7,0.37 -0.16,0.16 -0.24,0.56 -0.24,1.17 0,1.28 0.03,2.4 0.06,3.56 0.03,1.26 0.07,2.57 0.07,4.17 0,3.05 0.8,3.05 1.92,3.05 h 6.06 c 2.92,0 4.41,1.48 4.41,4.41 0,1.25 0.03,3.1 0.06,5.05 0.04,2.19 0.07,4.51 0.07,6.27 0,3.52 -1.97,5.54 -5.41,5.54 h -14.78 c -1.78,0 -3.06,-0.42 -3.91,-1.27 -1.15,-1.17 -1.12,-2.79 -1.11,-3.98 v -0.42 -24.91 c 0,-2.99 -0.44,-2.99 -2.85,-2.99 h -13.94 c -1.26,-0.05 -2.03,0.12 -2.42,0.5 -0.39,0.39 -0.56,1.19 -0.52,2.52 0.18,6.38 0.11,12.69 0.01,18.56 -0.04,2.57 -0.77,4.33 -2.17,5.22 -1.42,0.9 -3.37,0.81 -5.81,-0.27 -3.8,-1.69 -7.08,-1.16 -9.23,1.49 -2.05,2.53 -2.1,6.11 -0.12,8.71 2.66,3.5 6.41,2.86 9.09,1.7 2.67,-1.15 4.67,-1.26 6.09,-0.33 1.42,0.93 2.13,2.79 2.16,5.7 0.06,5.69 0.13,12.15 -0.03,18.55 -0.03,1.07 0.13,1.76 0.47,2.1 0.35,0.35 1.04,0.51 2.17,0.49 2.95,-0.07 5.94,-0.1 9.04,-0.1 z"
   id="path945" />

	
		<linearGradient
   id="SVGID_00000129913890822193732050000011545912665301734016_"
   gradientUnits="userSpaceOnUse"
   x1="207.33411"
   y1="242.0919"
   x2="291.30441"
   y2="242.0919">
		<stop
   offset="0"
   style="stop-color:#F37E5F"
   id="stop947" />

		<stop
   offset="0.5"
   style="stop-color:#EC1C24"
   id="stop949" />

		<stop
   offset="1"
   style="stop-color:#CF232A"
   id="stop951" />

	</linearGradient>

	<path
   style="fill:url(#SVGID_00000129913890822193732050000011545912665301734016_)"
   d="m 236.56,265.32 c 2.07,0 4.13,0.02 6.15,0.04 1.29,0.01 2.59,0.02 3.88,0.03 3.44,0.02 5.32,0.62 6.25,2.01 0.94,1.39 0.8,3.37 -0.48,6.61 -0.98,2.48 -0.85,5.05 0.36,7.05 1.06,1.75 2.83,2.84 4.97,3.07 2.64,0.28 4.98,-0.64 6.39,-2.51 1.52,-2.02 1.75,-4.9 0.62,-7.7 -1.22,-3.02 -1.34,-5.01 -0.39,-6.43 0.96,-1.42 2.83,-2.07 6.09,-2.08 l 3.36,-0.02 c 4.87,-0.03 9.91,-0.06 14.86,0.05 1.12,0.02 1.83,-0.13 2.18,-0.48 0.34,-0.35 0.5,-1.04 0.47,-2.12 -0.1,-3.65 -0.09,-7.36 -0.08,-10.94 0,-2.55 0.01,-5.1 -0.02,-7.66 -0.02,-1.94 -0.32,-3.1 -0.87,-3.47 -0.58,-0.38 -1.86,-0.17 -3.8,0.63 -5.02,2.07 -10.71,0.88 -13.52,-2.85 -2.6,-3.45 -2.59,-8.09 0.01,-11.56 2.81,-3.73 8.51,-4.91 13.54,-2.79 1.87,0.79 3.13,0.98 3.74,0.58 0.59,-0.39 0.9,-1.57 0.92,-3.5 0.03,-2.39 0.01,-4.78 0,-7.17 -0.02,-3.62 -0.03,-7.37 0.08,-11.06 0.04,-1.23 -0.14,-2.02 -0.53,-2.43 -0.41,-0.42 -1.23,-0.61 -2.53,-0.58 -7.16,0.1 -14.43,0.08 -21.46,0.07 -2.68,-0.01 -5.37,-0.01 -8.05,-0.01 -0.07,0.01 -0.14,0.02 -0.21,0.02 -2.76,0 -5.51,0.01 -8.27,0.03 -6.79,0.03 -13.81,0.07 -20.72,-0.12 -1.48,-0.04 -2.43,0.16 -2.88,0.62 -0.46,0.47 -0.63,1.39 -0.56,3.01 0.23,5.2 0.15,10.49 0.07,15.6 l -0.03,2.29 c -0.04,2.69 -0.8,4.54 -2.28,5.49 -1.47,0.94 -3.44,0.88 -5.86,-0.19 -4.12,-1.82 -7.1,-1.25 -9.39,1.77 -1.74,2.29 -1.67,6.17 0.14,8.48 2.14,2.72 5.41,3.32 9.2,1.68 2.55,-1.1 4.56,-1.18 5.99,-0.24 1.47,0.96 2.2,2.84 2.21,5.75 0.01,1.25 0.02,2.5 0.03,3.75 0.04,4.75 0.09,9.67 -0.08,14.5 -0.04,1.23 0.12,2.01 0.5,2.39 0.39,0.39 1.19,0.55 2.52,0.51 2.51,-0.1 5,-0.12 7.48,-0.12 z"
   id="path954" />

	
		<linearGradient
   id="SVGID_00000020360076974126672040000017252002234653564296_"
   gradientUnits="userSpaceOnUse"
   x1="226.07359"
   y1="300.78711"
   x2="291.30551"
   y2="300.78711">
		<stop
   offset="0"
   style="stop-color:#5B57A5"
   id="stop956" />

		<stop
   offset="0.5"
   style="stop-color:#2E3092"
   id="stop958" />

		<stop
   offset="1"
   style="stop-color:#474374"
   id="stop960" />

	</linearGradient>

	<path
   style="fill:url(#SVGID_00000020360076974126672040000017252002234653564296_)"
   d="m 228.35,268.11 c -0.89,0 -1.47,0.15 -1.77,0.44 -0.35,0.34 -0.51,1.05 -0.5,2.25 0.07,19.33 0.08,39.59 0.01,60.22 0,1.03 0.14,1.68 0.45,1.99 0.3,0.3 0.93,0.45 1.92,0.45 0.02,0 0.03,0 0.04,0 19.3,-0.09 39.1,-0.09 60.54,-0.01 0.01,0 0.03,0 0.04,0 0.96,0 1.56,-0.14 1.84,-0.42 0.27,-0.28 0.4,-0.85 0.38,-1.74 -0.06,-3.47 -0.05,-6.99 -0.05,-10.4 0,-2.73 0.01,-5.46 -0.02,-8.2 -0.01,-0.86 -0.04,-3.48 -0.82,-4 -0.78,-0.52 -3.21,0.49 -4.01,0.82 -4.3,1.78 -10.02,0.77 -12.74,-2.26 -2.8,-3.11 -3.39,-6.69 -1.71,-10.36 2.39,-5.2 9.07,-7.14 15.22,-4.41 1.46,0.65 2.65,0.81 3.25,0.43 0.38,-0.24 0.59,-0.77 0.62,-1.57 0.17,-5.61 0.11,-11.17 0.11,-17.05 0,-5.94 0.76,-6.11 -3.93,-6.11 -5.3,0 -12.22,-0.03 -17.3,0.03 -1.78,0.02 -2.92,0.35 -3.29,0.94 -0.38,0.61 -0.18,1.82 0.59,3.51 2.19,4.77 1.31,9.1 -2.47,12.21 -3.42,2.81 -8.31,2.84 -11.88,0.09 -3.86,-2.98 -4.83,-7.41 -2.67,-12.17 0.8,-1.76 1.02,-3.01 0.63,-3.61 -0.39,-0.61 -1.64,-0.95 -3.62,-0.97 -2.42,-0.02 -4.83,-0.01 -7.25,0 -3.71,0.02 -7.55,0.03 -11.33,-0.08 -0.1,-0.02 -0.19,-0.02 -0.28,-0.02 z"
   id="path963" />

</g>
      <g
         id="Layer_3">
</g>
    </g>
  </g>
  <style
     type="text/css"
     id="style904">
	.st0{fill:#808285;}
	.st1{fill:url(#SVGID_1_);}
	.st2{fill:url(#SVGID_00000098914293451274562310000012904289065748853406_);}
	.st3{fill:url(#SVGID_00000135688499091791080500000011378360070859491996_);}
	.st4{fill:url(#SVGID_00000047778641035396657470000007400137739213961612_);}
</style>
</svg>
